<svg width="512" height="512" xmlns="http://www.w3.org/2000/svg" enable-background="new 0 0 24 24" fill="#ffffff">
 <g>
  <title></title>
  <rect x="0" y="0" fill="#ffffff" width="512" height="512" id="svg_4"/>
  <path d="m192.12499,447.62501c0,11.71042 9.58125,21.29167 21.29167,21.29167l85.16666,0c11.71042,0 21.29167,-9.58125 21.29167,-21.29167l0,-21.29167l-127.75,0l0,21.29167zm63.875,-404.54165c-82.18583,0 -149.04166,66.85583 -149.04166,149.04166c0,50.67417 25.33708,95.17375 63.875,122.21416l0,48.11917c0,11.71042 9.58125,21.29167 21.29167,21.29167l127.75,0c11.71042,0 21.29167,-9.58125 21.29167,-21.29167l0,-48.11917c38.53792,-27.04042 63.875,-71.54 63.875,-122.21416c0,-82.18583 -66.85583,-149.04166 -149.04166,-149.04166l-0.00002,0zm60.68125,236.33749l-18.09792,12.775l0,48.97083l-85.16666,0l0,-48.97083l-18.09792,-12.775c-28.74375,-20.01417 -45.77708,-52.59042 -45.77708,-87.29583c0,-58.765 47.69333,-106.45833 106.45833,-106.45833s106.45833,47.69333 106.45833,106.45833c0,34.70542 -17.03333,67.28166 -45.77708,87.29583z" fill="#ff9800" id="svg_3" stroke="null"/>
 </g>
</svg>